<svg width="99" height="17" viewBox="0 0 99 17" fill="none" xmlns="http://www.w3.org/2000/svg">
<path fill-rule="evenodd" clip-rule="evenodd" d="M72.5104 0.00116895C71.6919 0.00116895 70.9521 0.323798 70.4401 0.891907C69.8518 1.50911 69.7238 2.00358 69.7238 3.38644V13.589C69.7238 14.7264 69.9035 15.2933 70.4401 15.8614C70.9263 16.3805 71.7682 16.7265 72.5362 16.7265C73.3042 16.7265 74.0969 16.3793 74.6335 15.8123C75.1455 15.2688 75.351 14.6259 75.351 13.589V3.38644C75.351 2.05384 75.1702 1.48456 74.6077 0.865021C74.0969 0.32263 73.3289 0 72.5116 0" fill="#EF6A00"/>
<path fill-rule="evenodd" clip-rule="evenodd" d="M29.6919 0.00116895C28.8488 0.00116895 28.0549 0.391597 27.5206 1.02283C27.0075 1.6038 26.9065 1.96851 26.9065 3.15733V9.61459C26.9065 10.7321 26.344 11.4101 25.3717 11.4101C24.3993 11.4101 23.8369 10.7064 23.8369 9.54212V3.15733C23.8369 2.0176 23.6325 1.41209 23.0712 0.850994C22.5592 0.342502 21.7654 0.00116895 20.9998 0.00116895C20.1813 0.00116895 19.3123 0.416145 18.7756 1.04738C18.2895 1.65172 18.1873 2.04098 18.1873 3.56997V9.27443C18.1873 11.4089 18.5208 12.5486 19.5683 13.9093C20.9246 15.6569 23.097 16.7265 25.3717 16.7265C27.3926 16.7265 29.3854 15.8509 30.7664 14.3453C31.9947 13.0349 32.5572 11.458 32.5572 9.27443V3.52321C32.5572 2.0667 32.4292 1.58042 31.8914 0.973733C31.3794 0.391597 30.5104 0.00116895 29.6919 0.00116895Z" fill="#EF6A00"/>
<path fill-rule="evenodd" clip-rule="evenodd" d="M8.49111 5.38183C8.58153 5.41456 8.67078 5.4508 8.76002 5.49171C9.86034 6.01891 10.5755 7.14811 10.5755 8.37434C10.5755 9.40301 10.04 10.4329 9.19451 11.0325C8.53103 11.4849 8.06954 11.5609 6.12607 11.5854V5.14103H6.58757C7.4636 5.14103 8.01904 5.21117 8.49228 5.38066L8.49111 5.38183ZM15.6262 5.38183C15.1529 4.14041 14.3826 3.01939 13.3633 2.13216C11.6993 0.677989 9.73117 0.00116895 7.17354 0.00116895H3.72228C2.0853 0.00116895 1.03548 0.628894 0.627999 1.83291C0.5 2.20814 0.5 2.35777 0.5 3.76284V12.9648C0.5 14.1162 0.5 14.3932 0.603338 14.7708C0.781832 15.4231 1.14117 15.8731 1.77999 16.2741C2.29081 16.6259 2.82746 16.7253 4.15559 16.7253H6.5359C7.71255 16.7253 8.73536 16.6505 9.42468 16.5242C10.909 16.225 12.3405 15.4967 13.4408 14.4938C15.1799 12.9145 16.1757 10.6573 16.1757 8.34862C16.1757 7.32696 15.9867 6.31933 15.6273 5.383L15.6262 5.38183Z" fill="#EF6A00"/>
<path fill-rule="evenodd" clip-rule="evenodd" d="M47.3557 0.00116895C46.4351 0.00116895 45.5403 0.473424 45.0553 1.18882C44.6466 1.75576 44.5445 2.25139 44.5445 3.33734V6.40116L40.0692 1.09063C39.4292 0.323798 38.7916 0.00116895 37.9719 0.00116895C36.2081 0.00116895 35.0303 1.16427 35.0303 2.91769V13.3424C35.0303 14.5522 35.1583 15.0467 35.6186 15.6651C36.1564 16.3314 36.9996 16.7276 37.8697 16.7276C38.7399 16.7276 39.5067 16.3571 40.0434 15.7399C40.5295 15.1472 40.6834 14.6516 40.6834 13.5656V10.1067L45.1316 15.6171C45.7199 16.3582 46.4609 16.7276 47.3569 16.7276C48.2529 16.7276 49.0444 16.3571 49.5552 15.7153C50.0414 15.097 50.1682 14.5534 50.1682 13.2442V3.16434C50.1682 2.15203 49.9909 1.58392 49.5035 0.990098C48.9669 0.372894 48.2001 0.00116895 47.3557 0.00116895Z" fill="#EF6A00"/>
<path fill-rule="evenodd" clip-rule="evenodd" d="M63.4847 8.17912L66.35 4.15093C66.6307 3.75817 66.7833 3.23682 66.7833 2.72014C66.7833 1.26246 65.4799 0.00116895 63.9462 0.00116895C62.9997 0.00116895 62.1824 0.446538 61.6176 1.26246L58.6959 5.42742L58.4998 5.70914V3.06498C58.4998 2.07722 58.2943 1.46002 57.7577 0.916455C57.2457 0.347177 56.4542 0 55.6357 0C53.9482 0 52.8221 1.23558 52.8221 3.04043V13.6124C52.8221 15.5154 53.9212 16.7253 55.6862 16.7253C57.4512 16.7253 58.4987 15.4897 58.4987 13.5878V10.7461L62.7179 15.9105C63.1266 16.4038 63.8934 16.7265 64.6861 16.7265C66.2209 16.7265 67.4985 15.4663 67.4985 13.9584C67.4985 13.3903 67.32 12.8982 66.9618 12.4762L63.4847 8.17796V8.17912Z" fill="#EF6A00"/>
<path fill-rule="evenodd" clip-rule="evenodd" d="M89.8489 0.00116895C88.9283 0.00116895 88.0335 0.473424 87.5485 1.18882C87.1387 1.75576 87.0377 2.25139 87.0377 3.33734V6.40116L82.5624 1.09063C81.9236 0.323798 81.2848 0.00116895 80.4663 0.00116895C78.7025 0.00116895 77.5247 1.16427 77.5247 2.91769V13.3424C77.5247 14.5522 77.6527 15.0467 78.113 15.6651C78.6496 16.3314 79.4928 16.7276 80.3618 16.7276C81.2308 16.7276 81.9999 16.3571 82.5354 15.7399C83.0227 15.1472 83.1754 14.6516 83.1754 13.5656V10.1067L87.6248 15.6171C88.2131 16.3582 88.9541 16.7276 89.8489 16.7276C90.7437 16.7276 91.5364 16.3571 92.0472 15.7153C92.5334 15.097 92.6614 14.5534 92.6614 13.2442V3.16434C92.6614 2.15203 92.4829 1.58392 91.9967 0.990098C91.4612 0.372894 90.6933 0.00116895 89.8489 0.00116895Z" fill="#EF6A00"/>
<path fill-rule="evenodd" clip-rule="evenodd" d="M96.1608 0.00116895C94.7669 0.00116895 93.8228 1.68095 93.8228 3.07316C93.8228 3.69037 93.811 4.5098 93.9649 5.26377C94.1574 6.20711 94.6107 7.04408 95.6688 7.24981C96.7902 7.46607 97.5547 6.43856 98.0044 5.26143C98.3403 4.38238 98.5 3.41917 98.5 2.82535C98.5 1.43547 97.5547 0.00116895 96.1608 0.00116895Z" fill="#DF1683"/>
<path d="M94.0705 15.8977H94.1586C94.2244 15.8977 94.2725 15.8614 94.2725 15.7948C94.2725 15.7282 94.2244 15.6919 94.1586 15.6919H94.0705V15.8977ZM94.5508 16.2238C94.5767 16.2624 94.5966 16.2928 94.5966 16.336C94.5966 16.4261 94.5332 16.4892 94.4416 16.4892C94.3911 16.4892 94.3442 16.4635 94.316 16.4225L94.1105 16.1467H94.0694V16.3325C94.0694 16.4225 94.0036 16.488 93.9167 16.488C93.8239 16.488 93.7605 16.4214 93.7605 16.3325V15.5984C93.7605 15.5073 93.8263 15.4406 93.9179 15.4406H94.2267C94.4275 15.4406 94.5814 15.5832 94.5814 15.7936C94.5814 15.9187 94.5274 16.0181 94.444 16.0777L94.5497 16.2215L94.5508 16.2238ZM94.9137 15.9667C94.9137 15.5517 94.5767 15.215 94.1598 15.215C93.7429 15.215 93.4059 15.5505 93.4059 15.9667C93.4059 16.3828 93.7429 16.7183 94.1598 16.7183C94.5767 16.7183 94.9137 16.3828 94.9137 15.9667ZM95.2272 15.9667C95.2272 16.5383 94.7505 17.0023 94.1586 17.0023C93.5668 17.0023 93.09 16.5383 93.09 15.9667C93.09 15.395 93.5679 14.931 94.1586 14.931C94.7493 14.931 95.2272 15.395 95.2272 15.9667Z" fill="#EF6A00"/>
</svg>
