<svg width="23" height="23" viewBox="0 0 23 23" fill="none" xmlns="http://www.w3.org/2000/svg">
<path d="M22.8968 9.9544C22.8525 9.62563 22.5533 9.39384 22.2267 9.42968C22.1592 9.43811 22.0939 9.44233 22.0328 9.44233C21.1141 9.44233 20.3639 8.72377 20.3239 7.80716C20.3155 7.60699 20.208 7.42363 20.0394 7.31617C19.8687 7.21082 19.6559 7.19606 19.4726 7.27611C19.2576 7.36888 19.028 7.41731 18.792 7.41731C17.8479 7.41731 17.0809 6.64821 17.0809 5.70627C17.0809 5.45762 17.1336 5.21951 17.2347 4.99405C17.3085 4.83601 17.3085 4.65478 17.2389 4.49675C17.1694 4.3366 17.0346 4.21439 16.8681 4.1617C16.1601 3.93412 15.6838 3.27879 15.6838 2.53284C15.6838 2.22098 15.7681 1.91333 15.9304 1.64782C16.0231 1.494 16.0442 1.30646 15.9851 1.13578C15.9262 0.965093 15.7955 0.828128 15.627 0.762801C14.31 0.257077 12.9213 0 11.501 0C5.16052 0 0 5.15841 0 11.501C0 17.8437 5.16052 23 11.501 23C17.8416 23 23 17.8416 23 11.501C23 10.9869 22.9663 10.4664 22.8968 9.9544ZM11.501 16.0842C8.97243 16.0842 6.91578 14.0276 6.91578 11.501C6.91578 8.97454 8.97243 6.91578 11.501 6.91578C14.0297 6.91578 16.0863 8.97243 16.0863 11.501C16.0863 14.0297 14.0297 16.0842 11.501 16.0842Z" fill="white"/>
</svg>
