<svg width="15" height="21" viewBox="0 0 15 21" fill="none" xmlns="http://www.w3.org/2000/svg">
<path d="M1 19.8523V17.7576C1 16.6465 1.44138 15.5809 2.22704 14.7952C3.01271 14.0096 4.0783 13.5682 5.18939 13.5682H9.37879C10.4899 13.5682 11.5555 14.0096 12.3411 14.7952C13.1268 15.5809 13.5682 16.6465 13.5682 17.7576V19.8523M3.0947 5.18939C3.0947 6.30049 3.53608 7.36608 4.32174 8.15174C5.10741 8.93741 6.17299 9.37879 7.28409 9.37879C8.39519 9.37879 9.46078 8.93741 10.2464 8.15174C11.0321 7.36608 11.4735 6.30049 11.4735 5.18939C11.4735 4.0783 11.0321 3.01271 10.2464 2.22704C9.46078 1.44138 8.39519 1 7.28409 1C6.17299 1 5.10741 1.44138 4.32174 2.22704C3.53608 3.01271 3.0947 4.0783 3.0947 5.18939Z" stroke="black" stroke-width="2" stroke-linecap="round" stroke-linejoin="round"/>
</svg>
