<svg width="23" height="24" viewBox="0 0 23 24" fill="none" xmlns="http://www.w3.org/2000/svg">
<path d="M7.27808 10.3656C7.27808 11.2972 7.67494 12.1905 8.38137 12.8492C9.08779 13.5079 10.0459 13.878 11.0449 13.878C12.044 13.878 13.0021 13.5079 13.7085 12.8492C14.415 12.1905 14.8118 11.2972 14.8118 10.3656C14.8118 9.43409 14.415 8.54071 13.7085 7.88202C13.0021 7.22332 12.044 6.85327 11.0449 6.85327C10.0459 6.85327 9.08779 7.22332 8.38137 7.88202C7.67494 8.54071 7.27808 9.43409 7.27808 10.3656Z" stroke="black" stroke-width="2" stroke-linecap="round" stroke-linejoin="round"/>
<path d="M18.1481 16.9891L12.8205 21.9567C12.3496 22.3953 11.7112 22.6417 11.0456 22.6417C10.38 22.6417 9.74168 22.3953 9.2708 21.9567L3.94193 16.9891C2.53717 15.6792 1.58052 14.0102 1.19298 12.1934C0.805432 10.3765 1.00439 8.49328 1.76468 6.78185C2.52498 5.07041 3.81247 3.60763 5.46435 2.57847C7.11623 1.54931 9.05831 1 11.045 1C13.0317 1 14.9738 1.54931 16.6256 2.57847C18.2775 3.60763 19.565 5.07041 20.3253 6.78185C21.0856 8.49328 21.2846 10.3765 20.897 12.1934C20.5095 14.0102 19.5528 15.6792 18.1481 16.9891Z" stroke="black" stroke-width="2" stroke-linecap="round" stroke-linejoin="round"/>
</svg>
