<svg width="20" height="24" viewBox="0 0 20 24" fill="none" xmlns="http://www.w3.org/2000/svg">
<g clip-path="url(#clip0_2013_483)">
<path d="M5.96584 3.57959H3.57948C2.94658 3.57959 2.33959 3.83101 1.89206 4.27854C1.44453 4.72607 1.19312 5.33305 1.19312 5.96595V20.2841C1.19312 20.917 1.44453 21.524 1.89206 21.9715C2.33959 22.4191 2.94658 22.6705 3.57948 22.6705H15.5113C16.1442 22.6705 16.7512 22.4191 17.1987 21.9715C17.6462 21.524 17.8977 20.917 17.8977 20.2841V5.96595C17.8977 5.33305 17.6462 4.72607 17.1987 4.27854C16.7512 3.83101 16.1442 3.57959 15.5113 3.57959H13.1249" stroke="black" stroke-width="2" stroke-linecap="round" stroke-linejoin="round"/>
<path d="M5.96582 14.3181H5.97775M5.96582 17.8977H5.97775M9.54537 16.7045L10.7385 17.8977L14.3181 14.3181M5.96582 3.57948C5.96582 2.94658 6.21724 2.33959 6.66477 1.89206C7.1123 1.44453 7.71928 1.19312 8.35218 1.19312H10.7385C11.3715 1.19312 11.9784 1.44453 12.426 1.89206C12.8735 2.33959 13.1249 2.94658 13.1249 3.57948C13.1249 4.21238 12.8735 4.81936 12.426 5.26689C11.9784 5.71442 11.3715 5.96584 10.7385 5.96584H8.35218C7.71928 5.96584 7.1123 5.71442 6.66477 5.26689C6.21724 4.81936 5.96582 4.21238 5.96582 3.57948Z" stroke="black" stroke-width="2" stroke-linecap="round" stroke-linejoin="round"/>
</g>
<defs>
<clipPath id="clip0_2013_483">
<rect width="19.0909" height="23.8636" fill="white"/>
</clipPath>
</defs>
</svg>
