<svg width="24" height="23" viewBox="0 0 24 23" fill="none" xmlns="http://www.w3.org/2000/svg">
<path d="M21.3451 9.19667C20.9427 9.18926 20.547 9.09943 20.1861 8.93355C19.8251 8.76767 19.5077 8.52981 19.2563 8.2368C19.0049 7.9438 18.8257 7.60283 18.7314 7.23806C18.6371 6.87329 18.6299 6.49363 18.7105 6.126H18.6007C18.0321 6.13158 17.4719 5.99744 16.9765 5.73707C16.4811 5.4767 16.068 5.09928 15.7787 4.64278C15.4894 4.18628 15.3342 3.6668 15.3285 3.13658C15.3229 2.60636 15.4671 2.08411 15.7466 1.62236C13.4514 0.839902 10.9418 0.793964 8.61544 1.49182C6.28905 2.18968 4.27893 3.59142 2.90355 5.47497C1.52817 7.35851 0.866189 9.61614 1.02248 11.8902C1.17877 14.1642 2.14441 16.3246 3.76639 18.029C5.38837 19.7334 7.57394 20.8845 9.97683 21.2997C12.3797 21.715 14.8625 21.3707 17.0318 20.3215C19.2012 19.2722 20.933 17.578 21.9529 15.5073C22.9728 13.4365 23.2224 11.1076 22.6623 8.8896C22.333 9.09431 21.7841 9.19667 21.3451 9.19667Z" stroke="black" stroke-width="2" stroke-linecap="round" stroke-linejoin="round"/>
<path d="M12.0139 14.3144C13.8327 14.3144 15.3071 12.9396 15.3071 11.2438C15.3071 9.54788 13.8327 8.1731 12.0139 8.1731C10.1951 8.1731 8.7207 9.54788 8.7207 11.2438C8.7207 12.9396 10.1951 14.3144 12.0139 14.3144Z" stroke="black" stroke-width="2" stroke-linecap="round" stroke-linejoin="round"/>
</svg>
