<svg width="32" height="32" viewBox="0 0 32 32" fill="none" xmlns="http://www.w3.org/2000/svg">
<path d="M23.5687 29.6002H9.23125C5.91127 29.6002 3.19995 26.8827 3.19995 23.5689V9.23149C3.19995 5.91766 5.91742 3.2002 9.23125 3.2002H23.5687C26.8886 3.2002 29.6 5.91766 29.6 9.23149V23.5689C29.6 26.8889 26.8886 29.6002 23.5687 29.6002Z" fill="#3F342F"/>
<path fill-rule="evenodd" clip-rule="evenodd" d="M23.0774 8.49341H10.4369C8.64778 8.49341 7.19067 9.95666 7.19067 11.7396V19.5969C7.19067 21.386 8.65392 22.8431 10.4369 22.8431H14.9004L15.6689 24.1711L16.4251 25.4806C16.5604 25.7204 16.9047 25.7204 17.0461 25.4806L17.8023 24.1711L18.5708 22.8431H23.0835C24.8727 22.8431 26.3298 21.3799 26.3298 19.5969V11.7458C26.3298 9.95666 24.8665 8.49341 23.0774 8.49341ZM17.642 14.248C16.6644 14.248 15.8713 15.0288 15.8713 15.9941C15.8713 16.9593 16.6644 17.7401 17.642 17.7401C18.6195 17.7401 19.4127 16.9593 19.4127 15.9941C19.4127 15.0288 18.6257 14.248 17.642 14.248ZM17.642 16.8302C17.1747 16.8302 16.7936 16.4552 16.7936 15.9941C16.7936 15.533 17.1747 15.1579 17.642 15.1579C18.1093 15.1579 18.4904 15.533 18.4904 15.9941C18.4904 16.4552 18.1154 16.8302 17.642 16.8302ZM11.0269 14.6475C11.3036 14.3954 11.6602 14.2479 12.0413 14.2479C12.9267 14.2479 13.6337 15.0348 13.6337 16.0001C13.6337 16.9653 12.9205 17.7462 12.0413 17.7462C11.654 17.7462 11.3036 17.5924 11.0269 17.3465V17.6601H10.0432V13.2027H11.0269V14.6475ZM11.0331 16.3382C11.1683 16.6518 11.4819 16.867 11.8446 16.867C12.3365 16.867 12.7299 16.4796 12.7299 15.9939C12.7299 15.5082 12.3365 15.1209 11.8446 15.1209C11.4819 15.1209 11.1683 15.3361 11.0331 15.6496C10.9839 15.7542 10.9593 15.871 10.9593 15.9939C10.9593 16.1169 10.99 16.2337 11.0331 16.3382ZM22.481 14.3219V14.5985C22.2043 14.3834 21.86 14.2542 21.4911 14.2542C20.5873 14.2542 19.8557 15.0105 19.8557 15.9388C19.8557 16.8672 20.5873 17.6234 21.4911 17.6234C21.8661 17.6234 22.2104 17.4943 22.481 17.2791V17.7464C22.481 17.7464 22.3826 18.2075 21.694 18.2075V19.0744C21.694 19.0744 22.4379 19.1604 23.1019 18.4964C23.1019 18.4964 23.4093 18.1706 23.477 17.7402V14.3219H22.481ZM21.6756 16.7934C21.1776 16.7934 20.7779 16.4061 20.7779 15.9327C20.7779 15.4593 21.1837 15.0719 21.6756 15.0719C22.026 15.0719 22.3334 15.2687 22.481 15.5515C22.5424 15.6683 22.5732 15.7974 22.5732 15.9327C22.5732 16.0679 22.5363 16.2032 22.481 16.3139C22.3334 16.6028 22.026 16.7934 21.6756 16.7934ZM13.7444 14.0081V13.1166C13.7444 13.1166 14.3961 13.0306 14.974 13.713C14.974 13.713 15.2384 14.045 15.2999 14.4877V14.5122V17.6601H14.2854V14.5122C14.1993 14.0696 13.7444 14.0081 13.7444 14.0081Z" fill="white"/>
</svg>
