<svg width="32" height="32" viewBox="0 0 32 32" fill="none" xmlns="http://www.w3.org/2000/svg">
<path d="M10.3994 2.66699H21.5994C25.866 2.66699 29.3327 6.13366 29.3327 10.4003V21.6003C29.3327 23.6513 28.5179 25.6183 27.0676 27.0686C25.6174 28.5189 23.6504 29.3337 21.5994 29.3337H10.3994C6.13268 29.3337 2.66602 25.867 2.66602 21.6003V10.4003C2.66602 8.34932 3.48078 6.38232 4.93106 4.93203C6.38134 3.48175 8.34834 2.66699 10.3994 2.66699ZM10.1327 5.33366C8.85964 5.33366 7.63875 5.83937 6.73857 6.73955C5.8384 7.63972 5.33268 8.86062 5.33268 10.1337V21.867C5.33268 24.5203 7.47935 26.667 10.1327 26.667H21.866C23.1391 26.667 24.36 26.1613 25.2601 25.2611C26.1603 24.3609 26.666 23.14 26.666 21.867V10.1337C26.666 7.48033 24.5194 5.33366 21.866 5.33366H10.1327ZM22.9994 7.33366C23.4414 7.33366 23.8653 7.50925 24.1779 7.82182C24.4904 8.13438 24.666 8.5583 24.666 9.00033C24.666 9.44235 24.4904 9.86628 24.1779 10.1788C23.8653 10.4914 23.4414 10.667 22.9994 10.667C22.5573 10.667 22.1334 10.4914 21.8208 10.1788C21.5083 9.86628 21.3327 9.44235 21.3327 9.00033C21.3327 8.5583 21.5083 8.13438 21.8208 7.82182C22.1334 7.50925 22.5573 7.33366 22.9994 7.33366ZM15.9994 9.33366C17.7675 9.33366 19.4632 10.036 20.7134 11.2863C21.9636 12.5365 22.666 14.2322 22.666 16.0003C22.666 17.7684 21.9636 19.4641 20.7134 20.7144C19.4632 21.9646 17.7675 22.667 15.9994 22.667C14.2312 22.667 12.5355 21.9646 11.2853 20.7144C10.0351 19.4641 9.33268 17.7684 9.33268 16.0003C9.33268 14.2322 10.0351 12.5365 11.2853 11.2863C12.5355 10.036 14.2312 9.33366 15.9994 9.33366ZM15.9994 12.0003C14.9385 12.0003 13.9211 12.4218 13.1709 13.1719C12.4208 13.922 11.9994 14.9395 11.9994 16.0003C11.9994 17.0612 12.4208 18.0786 13.1709 18.8288C13.9211 19.5789 14.9385 20.0003 15.9994 20.0003C17.0602 20.0003 18.0776 19.5789 18.8278 18.8288C19.5779 18.0786 19.9994 17.0612 19.9994 16.0003C19.9994 14.9395 19.5779 13.922 18.8278 13.1719C18.0776 12.4218 17.0602 12.0003 15.9994 12.0003Z" fill="#3F342F"/>
</svg>
