<svg width="32" height="32" viewBox="0 0 32 32" fill="none" xmlns="http://www.w3.org/2000/svg">
<path d="M13.3327 20.0003L20.2527 16.0003L13.3327 12.0003V20.0003ZM28.746 9.56033C28.9193 10.187 29.0393 11.027 29.1193 12.0937C29.2127 13.1603 29.2527 14.0803 29.2527 14.8803L29.3327 16.0003C29.3327 18.9203 29.1193 21.067 28.746 22.4403C28.4127 23.6403 27.6393 24.4137 26.4393 24.747C25.8127 24.9203 24.666 25.0403 22.906 25.1203C21.1727 25.2137 19.586 25.2537 18.1193 25.2537L15.9993 25.3337C10.4127 25.3337 6.93268 25.1203 5.55935 24.747C4.35935 24.4137 3.58602 23.6403 3.25268 22.4403C3.07935 21.8137 2.95935 20.9737 2.87935 19.907C2.78602 18.8403 2.74602 17.9203 2.74602 17.1203L2.66602 16.0003C2.66602 13.0803 2.87935 10.9337 3.25268 9.56033C3.58602 8.36033 4.35935 7.58699 5.55935 7.25366C6.18602 7.08033 7.33268 6.96033 9.09268 6.88033C10.826 6.78699 12.4127 6.74699 13.8793 6.74699L15.9993 6.66699C21.586 6.66699 25.066 6.88033 26.4393 7.25366C27.6393 7.58699 28.4127 8.36033 28.746 9.56033Z" fill="#3F342F"/>
</svg>
