<svg width="23" height="21" viewBox="0 0 23 21" fill="none" xmlns="http://www.w3.org/2000/svg">
<path d="M22.4539 4.67571L21.4462 2.21563V1.11148C21.4462 0.497885 20.944 0 20.325 0H2.3623C1.74335 0 1.24112 0.497885 1.24112 1.11148V2.21644L0.233377 4.67816C-0.0485615 5.3659 -0.0896609 6.14248 0.190634 6.83105C0.629571 7.91074 1.66526 8.58302 2.79631 8.58302C3.62486 8.58302 4.37861 8.22447 4.89646 7.64099C5.42828 8.23916 6.18202 8.58302 6.99416 8.58302H7.14952C7.94685 8.58302 8.67592 8.24237 9.19128 7.69809C9.71981 8.26034 10.4653 8.58302 11.2413 8.58302H11.4493C12.2253 8.58302 12.9708 8.26034 13.4993 7.69727C14.0147 8.24156 14.7429 8.58302 15.5411 8.58302H15.6964C16.5078 8.58302 17.2615 8.23916 17.7933 7.64023C18.3112 8.22366 19.0649 8.58302 19.8935 8.58302C21.0245 8.58302 22.0602 7.91074 22.4991 6.83023C22.7786 6.14084 22.7375 5.36428 22.4556 4.67571H22.4539Z" fill="white"/>
<path d="M17.7928 9.27899C17.164 9.65298 16.4415 9.85429 15.6952 9.85429H15.5406C14.8222 9.85429 14.1161 9.66111 13.4997 9.30748C12.8832 9.66111 12.173 9.85429 11.4505 9.85429H11.2433C10.5167 9.85429 9.81062 9.66111 9.19001 9.30748C8.5735 9.66111 7.86743 9.85429 7.14907 9.85429H6.99453C6.24819 9.85429 5.52563 9.65298 4.89682 9.27899C4.26801 9.65298 3.54549 9.85429 2.79913 9.85429C2.34869 9.85429 1.91468 9.78174 1.50452 9.64485V19.3638C1.50452 19.8103 1.86947 20.168 2.31581 20.168H4.73407V12.9353C4.73407 12.6134 4.99792 12.3559 5.31849 12.3559H8.46749C8.7922 12.3559 9.05192 12.6134 9.05192 12.9353V20.168H20.373C20.8235 20.168 21.1843 19.8103 21.1843 19.3638V9.64889C20.7783 9.78174 20.3443 9.85429 19.8938 9.85429C19.1475 9.85429 18.4208 9.65298 17.792 9.27899H17.7928ZM17.9556 15.7188C17.9556 16.0407 17.6958 16.2982 17.3712 16.2982H12.011C11.6864 16.2982 11.4266 16.0407 11.4266 15.7188V12.9353C11.4266 12.6134 11.6864 12.3559 12.011 12.3559H17.3712C17.6958 12.3559 17.9556 12.6134 17.9556 12.9353V15.7188Z" fill="white"/>
</svg>
